<?xml version="1.0" standalone="no"?>
<!DOCTYPE svg PUBLIC "-//W3C//DTD SVG 20010904//EN"
 "http://www.w3.org/TR/2001/REC-SVG-20010904/DTD/svg10.dtd">
<svg version="1.0" xmlns="http://www.w3.org/2000/svg"
 width="566.000000pt" height="566.000000pt" viewBox="0 0 566.000000 566.000000"
 preserveAspectRatio="xMidYMid meet">
<metadata>
Created by potrace 1.11, written by Peter Selinger 2001-2013
</metadata>
<g transform="translate(0.000000,566.000000) scale(0.100000,-0.100000)"
fill="#000000" stroke="none">
<path d="M2587 5520 c-658 -64 -1249 -345 -1697 -807 -405 -416 -651 -913
-742 -1498 -29 -187 -31 -558 -5 -740 52 -351 166 -691 328 -972 55 -97 182
-290 198 -303 4 -3 29 -34 56 -70 72 -94 244 -269 360 -367 118 -99 344 -252
470 -318 672 -353 1464 -410 2172 -156 59 21 133 50 163 64 30 13 76 34 102
45 71 31 252 137 358 210 269 185 510 427 696 697 76 112 180 290 215 370 12
28 32 73 44 100 77 172 151 437 187 670 31 203 31 569 -1 774 -51 335 -164
663 -321 938 -217 378 -495 676 -855 918 -336 225 -698 364 -1109 426 -149 22
-480 33 -619 19z m1503 -320 c18 -11 24 -82 7 -92 -7 -4 -20 -8 -29 -8 -15 0
-18 9 -18 48 0 61 8 72 40 52z m-2160 -38 c0 -21 5 -43 12 -50 9 -9 5 -12 -17
-11 -17 0 -24 3 -17 6 6 2 12 22 12 43 0 21 -6 41 -12 43 -8 3 -6 6 5 6 13 1
17 -7 17 -37z m1045 -715 c160 -74 282 -226 354 -442 34 -102 60 -247 62 -347
1 -43 5 -65 12 -61 6 4 7 1 3 -6 -5 -7 0 -21 9 -32 15 -16 17 -31 12 -96 -3
-43 -14 -103 -24 -134 -16 -50 -20 -55 -32 -41 -13 13 -16 11 -29 -19 -104
-239 -208 -371 -347 -439 -119 -59 -236 -60 -359 -2 -132 62 -279 242 -327
400 -9 31 -15 39 -21 29 -17 -31 -45 -7 -62 52 -29 103 -46 281 -27 281 17 0
40 -60 51 -137 7 -42 16 -86 21 -97 8 -18 9 -17 4 5 -16 86 -27 248 -21 337
24 397 182 672 441 765 76 27 201 19 280 -16z m1245 -187 c0 -27 28 -25 33 3
2 12 4 -3 4 -33 0 -30 -2 -43 -4 -27 -5 34 -33 36 -33 2 0 -14 -4 -25 -10 -25
-5 0 -10 23 -10 50 0 28 5 50 10 50 6 0 10 -9 10 -20z m-3229 -780 c5 0 12 7
15 15 4 8 11 15 17 15 5 0 2 -9 -8 -20 -17 -18 -17 -21 -1 -46 10 -14 15 -28
12 -31 -2 -3 -11 4 -18 16 -17 27 -26 27 -31 -1 -2 -13 -4 2 -4 32 -1 30 1 47
4 38 2 -10 9 -18 14 -18z m2923 -32 c4 7 11 10 16 7 5 -3 14 3 20 12 10 16 11
15 6 -7 -3 -14 -6 -31 -6 -37 0 -20 -20 -15 -21 5 -1 16 -2 16 -6 0 -2 -10 -8
-18 -13 -18 -8 0 -20 36 -19 60 1 8 4 4 8 -10 5 -17 9 -21 15 -12z m-2114
-253 c0 -2 -9 -19 -20 -37 -25 -42 -25 -46 3 -51 16 -3 13 -5 -10 -6 -38 -1
-40 3 -13 47 25 40 25 40 -2 45 -17 3 -14 5 10 6 17 0 32 -1 32 -4z m636 -610
l378 -355 25 24 c15 13 185 173 380 355 l353 332 313 -3 313 -3 44 -30 c25
-18 52 -49 66 -75 l22 -45 -2 -607 -3 -606 -30 -44 c-18 -25 -49 -52 -75 -65
l-44 -23 -693 0 -693 0 0 395 c0 257 -4 395 -10 395 -6 0 -10 -138 -10 -395
l0 -395 -654 2 -654 3 -44 30 c-25 18 -52 49 -66 75 l-22 45 2 607 3 606 30
44 c18 25 49 52 75 66 43 21 53 22 331 22 l287 0 378 -355z m1334 -1710 c0 -8
-4 -15 -10 -15 -5 0 -10 7 -10 15 0 8 5 15 10 15 6 0 10 -7 10 -15z m17 -7
c-3 -8 -6 -5 -6 6 -1 11 2 17 5 13 3 -3 4 -12 1 -19z m-1697 -9 c0 -5 -4 -8
-9 -4 -5 3 -13 0 -16 -6 -4 -6 2 -13 14 -16 30 -8 23 -38 -9 -40 -22 -1 -22
-1 -2 4 27 6 29 20 2 28 -22 7 -27 31 -7 38 20 9 27 8 27 -4z m317 -35 c1 -38
1 -38 -5 -6 -4 18 -11 33 -17 33 -5 0 -13 -15 -16 -33 l-6 -33 -2 37 c-1 34
11 50 34 44 6 -1 11 -20 12 -42z"/>
<path d="M4062 5178 c6 -18 28 -21 28 -4 0 9 -7 16 -16 16 -9 0 -14 -5 -12
-12z"/>
<path d="M4062 5133 c4 -21 33 -25 33 -3 0 8 -8 16 -18 18 -14 3 -18 -1 -15
-15z"/>
<path d="M2855 2075 c-14 -13 -25 -36 -25 -50 0 -33 42 -75 75 -75 33 0 75 42
75 75 0 33 -42 75 -75 75 -14 0 -37 -11 -50 -25z"/>
<path d="M2855 1745 c-14 -13 -25 -36 -25 -50 0 -33 42 -75 75 -75 33 0 75 42
75 75 0 33 -42 75 -75 75 -14 0 -37 -11 -50 -25z"/>
</g>
</svg>
